<?xml version="1.0" standalone="no"?>
<!DOCTYPE svg PUBLIC "-//W3C//DTD SVG 20010904//EN"
 "http://www.w3.org/TR/2001/REC-SVG-20010904/DTD/svg10.dtd">
<svg version="1.0" xmlns="http://www.w3.org/2000/svg"
 width="1283.000000pt" height="1283.000000pt" viewBox="0 0 1283.000000 1283.000000"
 preserveAspectRatio="xMidYMid meet">
<metadata>
Created by potrace 1.11, written by Peter Selinger 2001-2013
</metadata>
<g transform="translate(0.000000,1283.000000) scale(0.100000,-0.100000)"
fill="#000000" stroke="none">
<path d="M5370 9415 c-17 -21 -7 -101 16 -127 11 -11 55 -44 99 -73 44 -28
136 -92 205 -141 170 -122 190 -137 187 -141 -2 -1 -66 -9 -143 -18 -366 -38
-684 -100 -979 -190 -130 -39 -290 -97 -335 -120 -31 -16 -39 -16 -139 1 -212
35 -480 19 -671 -42 -229 -72 -403 -200 -476 -349 -26 -54 -29 -70 -29 -160 0
-90 3 -105 29 -157 91 -180 310 -320 589 -378 70 -15 92 -24 108 -44 28 -36
158 -141 243 -196 156 -101 336 -186 545 -257 109 -37 114 -37 125 -19 73 123
231 280 369 366 37 23 67 44 67 46 0 1 -32 -8 -72 -22 -252 -85 -599 -90 -863
-13 -376 111 -591 361 -520 605 61 211 281 369 620 445 141 32 405 37 560 11
322 -55 557 -194 659 -387 29 -56 31 -67 31 -160 0 -90 -3 -106 -29 -160 -29
-58 -124 -164 -191 -214 l-30 -22 40 17 c191 77 416 138 630 171 172 26 619
25 790 -1 220 -33 419 -86 590 -155 52 -22 95 -38 95 -36 0 1 -17 14 -37 27
-56 37 -136 120 -166 170 -170 291 63 606 535 722 445 110 943 3 1180 -253 74
-80 110 -156 116 -247 17 -262 -234 -480 -659 -571 -66 -14 -128 -18 -284 -18
-237 1 -339 18 -530 91 -11 4 23 -21 75 -56 109 -72 279 -236 334 -322 l36
-57 138 48 c297 106 488 208 677 361 66 54 75 58 165 75 292 54 522 197 616
383 26 52 29 66 29 158 0 94 -2 104 -33 165 -137 271 -566 437 -1027 399
l-140 -12 -70 32 c-211 97 -549 197 -855 254 -338 63 -778 106 -1082 106
l-117 0 -27 48 c-154 269 -282 427 -342 420 -22 -2 -29 -10 -36 -39 -5 -20 -6
-47 -3 -60 3 -13 50 -71 105 -129 54 -58 121 -134 150 -170 l52 -65 -145 -9
-145 -9 -93 89 c-193 187 -469 404 -511 404 -8 0 -19 -7 -26 -15z m1053 -522
c3 -10 15 -44 27 -77 20 -55 20 -59 4 -77 -9 -11 -20 -19 -25 -19 -7 0 -92
140 -104 173 -6 15 -1 17 43 17 39 0 51 -4 55 -17z m-293 -80 c45 -49 135
-153 198 -233 120 -149 132 -175 97 -209 -12 -13 -17 -11 -37 15 -144 183
-256 307 -382 421 -43 40 -75 76 -71 82 3 6 30 11 60 11 l53 0 82 -87z m-2572
-467 c-135 -132 -185 -328 -129 -506 11 -35 19 -65 18 -67 -2 -1 -24 17 -49
42 -140 133 -137 331 6 467 44 43 171 118 199 118 6 0 -15 -24 -45 -54z m5754
-38 c181 -96 261 -284 185 -439 -22 -47 -114 -155 -124 -146 -1 2 7 32 18 67
13 43 20 94 20 147 1 144 -47 259 -150 360 -63 62 -51 64 51 11z"/>
<path d="M4999 7996 c-162 -62 -232 -215 -163 -354 41 -83 112 -132 220 -151
239 -44 434 172 334 368 -22 45 -74 92 -133 123 -53 27 -202 35 -258 14z m234
-188 c57 -30 64 -92 16 -132 -64 -54 -158 -18 -159 60 0 65 81 106 143 72z"/>
<path d="M7660 7997 c-71 -17 -108 -37 -153 -83 -125 -129 -90 -316 77 -401
69 -36 180 -43 263 -17 78 24 163 107 182 176 56 200 -145 376 -369 325z m103
-128 c54 -66 -23 -157 -109 -129 -59 20 -82 80 -49 128 32 44 121 45 158 1z"/>
<path d="M6198 7430 c-59 -46 -31 -149 40 -150 35 0 58 16 72 49 15 37 7 74
-22 101 -28 25 -58 26 -90 0z"/>
<path d="M6550 7430 c-43 -43 -32 -109 23 -140 24 -13 30 -13 55 0 40 23 56
62 42 105 -19 56 -81 74 -120 35z"/>
<path d="M6335 6929 c-80 -7 -192 -44 -262 -85 -68 -39 -175 -150 -208 -214
-153 -301 31 -651 385 -734 84 -20 249 -20 325 -1 289 73 479 327 437 582 -48
288 -340 484 -677 452z"/>
<path d="M3260 3985 l0 -585 105 0 105 0 0 253 c0 228 -8 414 -26 597 -10 99
8 64 55 -110 23 -85 61 -216 85 -290 l43 -135 63 0 64 0 43 135 c23 74 64 209
90 300 54 186 62 182 43 -23 -6 -67 -14 -258 -17 -424 l-6 -303 111 0 112 0 0
585 0 585 -137 0 -138 0 -73 -273 c-40 -149 -77 -281 -82 -292 -10 -25 -9 -29
-59 165 -23 85 -56 209 -74 275 l-34 120 -136 3 -137 3 0 -586z"/>
<path d="M4360 3986 l0 -586 130 0 130 0 0 210 0 210 74 0 74 0 110 -207 110
-208 146 -3 147 -3 -14 23 c-8 13 -67 117 -132 233 -106 188 -116 210 -100
220 87 51 159 143 179 229 12 51 7 179 -9 232 -18 60 -76 131 -138 167 -85 50
-141 58 -434 64 l-273 5 0 -586z m548 346 c43 -31 62 -71 62 -127 0 -63 -25
-111 -73 -143 -37 -25 -51 -27 -159 -31 l-118 -3 0 167 0 167 128 -3 c114 -4
130 -6 160 -27z"/>
<path d="M6530 3986 l0 -586 130 0 130 0 0 200 0 200 118 0 c135 1 210 16 300
62 140 71 211 225 185 399 -24 153 -106 239 -270 285 -44 13 -122 18 -325 21
l-268 5 0 -586z m525 355 c52 -23 70 -46 85 -100 22 -84 -9 -168 -78 -208 -40
-24 -58 -27 -159 -31 l-113 -5 0 182 0 181 113 0 c87 0 121 -4 152 -19z"/>
<path d="M7590 3985 l0 -585 130 0 130 0 0 245 0 245 165 0 165 0 0 -245 0
-245 125 0 125 0 0 585 0 585 -125 0 -125 0 0 -225 0 -225 -165 0 -165 0 0
225 0 225 -130 0 -130 0 0 -585z"/>
<path d="M8690 3986 l0 -586 130 0 130 0 0 200 0 200 118 0 c170 1 262 27 358
101 98 76 148 219 125 359 -26 157 -103 240 -268 286 -44 13 -121 18 -325 21
l-268 5 0 -586z m530 352 c59 -31 83 -74 83 -148 -1 -79 -31 -132 -92 -162
-37 -18 -68 -23 -153 -26 l-108 -4 0 181 0 181 113 0 c97 0 119 -3 157 -22z"/>
<path d="M5440 3990 l0 -90 410 0 410 0 0 90 0 90 -410 0 -410 0 0 -90z"/>
</g>
</svg>
