<?xml version="1.0" standalone="no"?>
<!DOCTYPE svg PUBLIC "-//W3C//DTD SVG 20010904//EN"
 "http://www.w3.org/TR/2001/REC-SVG-20010904/DTD/svg10.dtd">
<svg version="1.0" xmlns="http://www.w3.org/2000/svg"
 width="924.000000pt" height="924.000000pt" viewBox="0 0 924.000000 924.000000"
 preserveAspectRatio="xMidYMid meet">
<metadata>
Created by potrace 1.11, written by Peter Selinger 2001-2013
</metadata>
<g transform="translate(0.000000,924.000000) scale(0.100000,-0.100000)"
fill="#000000" stroke="none">
<path d="M640 9030 c-8 -5 -36 -10 -62 -10 -27 0 -48 -4 -48 -10 0 -5 -9 -10
-20 -10 -11 0 -20 -4 -20 -10 0 -5 -7 -10 -15 -10 -20 0 -105 -85 -105 -105 0
-8 -4 -15 -10 -15 -5 0 -10 -9 -10 -19 0 -11 -4 -23 -10 -26 -5 -3 -10 -26
-10 -50 0 -24 -4 -47 -10 -50 -14 -9 -14 -8011 0 -8020 6 -3 10 -26 10 -50 0
-24 5 -47 10 -50 6 -3 10 -15 10 -26 0 -10 5 -19 10 -19 6 0 10 -7 10 -15 0
-20 85 -105 105 -105 8 0 15 -4 15 -10 0 -5 9 -10 20 -10 11 0 20 -4 20 -9 0
-5 30 -12 68 -16 118 -12 8019 -9 8087 3 89 16 115 23 115 33 0 5 7 9 16 9 19
0 104 87 104 107 0 7 5 13 10 13 6 0 10 8 10 18 0 10 4 22 9 27 5 6 12 39 17
75 10 85 10 7985 0 8070 -5 36 -12 69 -17 75 -5 5 -9 17 -9 27 0 10 -4 18 -10
18 -5 0 -10 7 -10 15 0 20 -85 105 -105 105 -8 0 -15 5 -15 10 0 6 -9 10 -20
10 -11 0 -20 4 -20 9 0 5 -26 12 -57 16 -92 12 -8046 16 -8063 5z m2110 -1416
c190 -57 324 -191 365 -365 29 -125 13 -285 -40 -390 -79 -155 -198 -260 -504
-443 -156 -94 -263 -177 -321 -249 -44 -55 -80 -128 -80 -164 0 -11 87 -13
470 -13 l470 0 0 -95 0 -95 -596 0 -597 0 7 63 c20 197 112 379 255 507 36 33
154 116 261 186 107 70 223 149 257 176 142 112 203 225 203 375 0 139 -65
244 -188 305 -62 31 -74 33 -167 33 -91 0 -104 -2 -151 -28 -65 -36 -124 -97
-158 -163 -28 -54 -56 -165 -56 -226 l0 -38 -105 0 -105 0 0 73 c1 155 52 295
146 396 85 93 160 134 299 167 77 18 259 12 335 -12z m4103 1 c240 -64 366
-232 355 -474 -3 -81 -9 -105 -33 -154 -31 -63 -124 -157 -182 -185 -41 -20
-42 -29 0 -37 17 -4 58 -21 90 -38 252 -133 282 -558 54 -781 -113 -110 -236
-156 -443 -163 -121 -5 -152 -2 -225 16 -118 30 -184 65 -260 141 -96 95 -140
197 -155 359 l-7 71 112 0 111 0 0 -37 c1 -141 101 -296 222 -341 82 -31 188
-38 272 -18 131 31 222 102 273 212 22 49 24 66 21 147 -2 78 -8 101 -32 150
-70 137 -226 208 -418 190 l-68 -6 0 90 0 90 103 5 c82 4 114 10 158 30 119
54 182 146 182 266 0 96 -17 146 -69 202 -58 62 -126 92 -226 98 -96 6 -158
-9 -225 -53 -85 -56 -137 -151 -151 -275 l-7 -65 -109 -3 -108 -3 7 63 c32
279 178 459 415 513 80 18 258 13 343 -10z m-3913 -4705 l0 -610 125 0 125 0
0 -90 0 -90 -125 0 -125 0 0 -220 0 -220 -106 0 -106 0 3 218 4 217 -403 0
-402 0 0 108 0 107 417 595 416 595 89 0 88 0 0 -610z m3950 -310 l0 -920
-105 0 -105 0 0 660 0 660 -240 0 -240 0 0 84 c0 95 0 96 83 96 215 1 389 120
436 298 l12 42 79 0 80 0 0 -920z"/>
<path d="M2419 2764 c-167 -246 -305 -451 -307 -455 -2 -5 136 -9 306 -9 l310
0 4 448 c2 246 1 451 -2 455 -4 4 -144 -193 -311 -439z"/>
</g>
</svg>
